<svg xmlns="http://www.w3.org/2000/svg" viewBox="0 0 48 48" width="48" height="48">
  <defs>
    <style>
      .node{fill:currentColor}
      .edge{stroke:currentColor;stroke-width:1.2;fill:none;opacity:0.5}
      .ring{stroke:currentColor;stroke-width:1.5;fill:none;opacity:0.25}
      .compass{stroke:currentColor;stroke-width:1.8;fill:none;opacity:0.15}
    </style>
  </defs>
  <circle cx="24" cy="24" r="22" class="compass"/>
  <line x1="24" y1="2" x2="24" y2="5" class="compass" style="opacity:0.3"/>
  <line x1="24" y1="43" x2="24" y2="46" class="compass" style="opacity:0.3"/>
  <line x1="2" y1="24" x2="5" y2="24" class="compass" style="opacity:0.3"/>
  <line x1="43" y1="24" x2="46" y2="24" class="compass" style="opacity:0.3"/>
  <circle cx="24" cy="24" r="15" class="ring"/>
  <line x1="24" y1="24" x2="14" y2="14" class="edge"/>
  <line x1="24" y1="24" x2="35" y2="16" class="edge"/>
  <line x1="24" y1="24" x2="16" y2="34" class="edge"/>
  <line x1="24" y1="24" x2="36" y2="32" class="edge"/>
  <line x1="14" y1="14" x2="35" y2="16" class="edge"/>
  <line x1="16" y1="34" x2="36" y2="32" class="edge"/>
  <line x1="14" y1="14" x2="16" y2="34" class="edge"/>
  <line x1="35" y1="16" x2="36" y2="32" class="edge"/>
  <circle cx="24" cy="24" r="4" class="node"/>
  <circle cx="14" cy="14" r="2.5" class="node"/>
  <circle cx="35" cy="16" r="2.5" class="node"/>
  <circle cx="16" cy="34" r="2.5" class="node"/>
  <circle cx="36" cy="32" r="2.5" class="node"/>
  <circle cx="24" cy="24" r="7" stroke="currentColor" stroke-width="0.8" fill="none" opacity="0.35" stroke-dasharray="2 2"/>
</svg>
